<?xml version="1.0" standalone="no"?>
<!DOCTYPE svg PUBLIC "-//W3C//DTD SVG 20010904//EN"
 "http://www.w3.org/TR/2001/REC-SVG-20010904/DTD/svg10.dtd">
<svg version="1.0" xmlns="http://www.w3.org/2000/svg"
 width="640.000000pt" height="640.000000pt" viewBox="0 0 640.000000 640.000000"
 preserveAspectRatio="xMidYMid meet">

<g transform="translate(0.000000,640.000000) scale(0.100000,-0.100000)"
fill="#000000" stroke="none">
<path d="M0 3200 l0 -3200 3200 0 3200 0 0 3200 0 3200 -3200 0 -3200 0 0
-3200z m2047 2958 c-3 -7 -5 -2 -5 12 0 14 2 19 5 13 2 -7 2 -19 0 -25z m-67
-430 c-4 -49 -5 -50 -8 -14 -3 34 2 66 10 66 2 0 1 -24 -2 -52z m1957 -25 c-2
-16 -4 -5 -4 22 0 28 2 40 4 28 2 -13 2 -35 0 -50z m-1897 -43 c-12 -22 -35
-26 -46 -8 -4 7 -3 8 5 4 21 -14 41 15 43 63 l1 46 4 -42 c2 -23 -1 -51 -7
-63z m67 -12 c-3 -7 -5 -2 -5 12 0 14 2 19 5 13 2 -7 2 -19 0 -25z m3894 -165
c-12 -20 -14 -14 -5 12 4 9 9 14 11 11 3 -2 0 -13 -6 -23z m46 -115 c-3 -8 -6
-5 -6 6 -1 11 2 17 5 13 3 -3 4 -12 1 -19z m-2810 -664 c3 -9 0 -20 -8 -25 -8
-5 -15 -4 -17 1 -2 5 -10 6 -19 3 -13 -5 -14 -3 -4 15 14 26 39 29 48 6z
m-123 0 c20 -8 21 -30 2 -37 -16 -6 -36 11 -36 30 0 14 10 16 34 7z m246 -20
c0 -9 -11 -14 -31 -14 -20 0 -29 4 -26 13 2 6 9 12 15 12 5 0 14 3 18 7 10 10
24 0 24 -18z m-346 0 c22 -8 20 -31 -3 -37 -20 -5 -36 17 -25 34 6 11 8 11 28
3z m408 -2 c2 -4 25 -14 52 -22 52 -16 69 -36 41 -47 -11 -4 -21 0 -27 10 -4
9 -15 14 -22 11 -7 -3 -16 2 -19 10 -4 9 -14 12 -25 9 -21 -5 -37 11 -27 27 7
12 22 13 27 2z m-494 -55 c3 -12 -3 -17 -22 -17 -25 0 -35 18 -19 34 12 12 38
2 41 -17z m-104 -65 c-6 -9 -21 -18 -33 -20 -29 -5 -28 30 2 44 28 13 46 0 31
-24z m500 13 c-4 -8 -11 -12 -16 -9 -6 4 -5 10 3 15 19 12 19 11 13 -6z m306
11 c0 -16 -14 -36 -25 -36 -14 0 -37 24 -30 31 5 6 55 10 55 5z m-897 -69 c7
-19 -8 -40 -25 -35 -12 2 -13 9 -7 26 9 25 24 29 32 9z m977 -17 c0 -13 -7
-20 -20 -20 -22 0 -23 1 -14 24 9 23 34 20 34 -4z m-476 -16 c3 -9 6 -20 6
-25 0 -12 -31 -11 -50 1 -13 9 -12 12 4 25 25 19 32 19 40 -1z m-107 -21 c4
-12 -34 -29 -44 -19 -3 3 -3 12 1 21 7 18 37 17 43 -2z m193 7 c0 -5 7 -7 15
-4 10 4 15 0 15 -11 0 -14 -6 -16 -27 -10 -34 8 -37 11 -28 24 8 14 25 14 25
1z m-270 -34 c0 -11 -14 -19 -50 -26 -2 -1 -6 3 -8 9 -2 6 7 15 20 20 32 13
38 13 38 -3z m364 8 c9 -3 16 -12 16 -20 0 -21 -33 -17 -48 6 -10 16 -10 20 2
20 8 0 21 -3 30 -6z m-787 -16 c5 14 29 16 37 3 3 -4 0 -16 -8 -26 -11 -15
-15 -16 -34 -4 -12 8 -22 21 -22 29 0 13 1 13 11 0 8 -11 12 -12 16 -2z m1151
-11 c2 -12 -3 -17 -17 -17 -23 0 -24 1 -15 25 8 19 28 15 32 -8z m-958 -1 c0
-2 -7 -7 -16 -10 -8 -3 -12 -2 -9 4 6 10 25 14 25 6z m113 -26 c4 0 5 5 2 10
-3 6 -1 10 4 10 6 0 11 -9 11 -20 0 -11 -7 -20 -15 -20 -9 0 -20 -10 -25 -22
-7 -19 -9 -15 -9 22 -1 34 2 41 11 32 7 -7 16 -12 21 -12z m-213 -10 c0 -5 -4
-10 -10 -10 -5 0 -10 5 -10 10 0 6 5 10 10 10 6 0 10 -4 10 -10z m809 -12 c11
-30 7 -33 -29 -18 -32 13 -38 25 -17 33 25 11 38 6 46 -15z m-679 -12 c0 -3
-4 -8 -10 -11 -5 -3 -10 -1 -10 4 0 6 5 11 10 11 6 0 10 -2 10 -4z m-246 -61
c-4 -8 -12 -15 -19 -15 -8 0 -16 -8 -18 -17 -3 -10 -5 -4 -6 13 -1 20 5 34 14
38 8 3 15 13 16 23 0 14 2 13 9 -5 5 -12 7 -29 4 -37z m1233 35 c3 -11 9 -20
14 -20 18 0 8 -21 -13 -29 -29 -10 -51 23 -34 52 14 23 27 22 33 -3z m-967 6
c0 -1 -5 -17 -11 -35 -13 -37 -44 -42 -52 -9 -7 26 1 38 12 19 10 -16 31 -6
31 15 0 8 5 14 10 14 6 0 10 -2 10 -4z m738 -57 c-23 -15 -50 -10 -46 8 4 22
52 35 56 15 2 -8 -2 -18 -10 -23z m1572 5 c0 -16 -16 -19 -25 -4 -8 13 4 32
16 25 5 -4 9 -13 9 -21z m-2390 -89 c0 -18 -5 -25 -20 -25 -24 0 -25 8 -3 32
21 23 23 23 23 -7z m877 -2 c2 -6 -5 -14 -17 -18 -26 -8 -33 -3 -24 19 7 19
35 18 41 -1z m223 -8 c0 -26 -14 -33 -25 -15 -9 14 1 40 15 40 5 0 10 -11 10
-25z m-1340 1 c0 -7 -9 -16 -20 -19 -15 -4 -20 0 -20 14 0 12 7 19 20 19 11 0
20 -6 20 -14z m-30 -132 l-14 -26 -9 27 c-7 20 -6 30 4 36 23 14 34 -8 19 -37z
m228 18 c3 -17 -2 -22 -17 -22 -16 0 -21 6 -21 26 0 33 33 30 38 -4z m962 8
c0 -21 -33 -29 -45 -10 -9 15 4 30 26 30 12 0 19 -7 19 -20z m210 -6 c0 -14
-21 -19 -33 -7 -9 9 13 34 24 27 5 -3 9 -12 9 -20z m990 -19 c0 -19 -4 -36 -9
-39 -12 -8 -22 34 -15 62 9 31 24 17 24 -23z m-2378 -95 l22 -20 -31 0 c-42 0
-53 29 -15 39 2 1 12 -8 24 -19z m217 7 c13 -16 5 -27 -21 -27 -11 0 -18 7
-18 20 0 23 22 27 39 7z m1001 3 c9 -3 -34 -19 -52 -19 -10 -1 -18 6 -18 15 0
11 8 14 33 10 17 -2 34 -5 37 -6z m170 -10 c0 -23 -25 -27 -33 -6 -7 16 1 26
20 26 7 0 13 -9 13 -20z m-1165 -139 c-8 -15 -38 -14 -53 1 -9 9 -8 16 4 29
15 17 17 17 36 -1 11 -10 17 -23 13 -29z m959 23 c9 -24 7 -34 -6 -34 -23 0
-41 18 -35 34 8 21 33 21 41 0z m93 -6 c-3 -8 -6 -5 -6 6 -1 11 2 17 5 13 3
-3 4 -12 1 -19z m-1283 6 c12 -5 13 -10 4 -24 -9 -14 -15 -16 -30 -7 -36 23
-16 47 26 31z m1400 -2 c8 -13 -11 -35 -23 -28 -16 10 -14 36 3 36 8 0 17 -4
20 -8z m-1947 -99 c-2 -16 -4 -5 -4 22 0 28 2 40 4 28 2 -13 2 -35 0 -50z
m773 -23 c0 -36 -2 -40 -25 -40 -20 0 -25 5 -25 26 0 18 4 25 14 21 8 -3 16 2
19 14 8 32 17 21 17 -21z m966 10 c21 0 17 -27 -7 -51 -17 -17 -23 -19 -30 -8
-12 19 -11 59 1 59 6 0 11 8 11 18 1 16 2 16 6 0 2 -10 11 -18 19 -18z m-1180
-5 c21 -21 11 -31 -30 -33 -34 -1 -35 0 -24 23 13 28 33 32 54 10z m1385 -11
c10 -13 10 -17 -2 -24 -17 -11 -45 13 -35 29 10 15 21 14 37 -5z m-1311 -12
c0 -26 -11 -34 -27 -21 -10 9 -10 15 -2 25 16 19 29 17 29 -4z m1210 -27 c0
-26 -4 -35 -16 -35 -13 0 -14 3 -5 14 9 11 10 20 1 35 -9 17 -8 21 5 21 11 0
15 -10 15 -35z m-1410 -30 c0 -8 -7 -15 -15 -15 -26 0 -18 20 13 29 1 1 2 -6
2 -14z m99 -1 c2 -2 2 -7 -2 -10 -8 -9 -47 6 -47 17 0 9 37 3 49 -7z m331 -5
c0 -5 -9 -9 -20 -9 -22 0 -27 16 -7 23 15 5 27 -1 27 -14z m70 6 c0 -8 -7 -15
-15 -15 -16 0 -20 12 -8 23 11 12 23 8 23 -8z m48 -3 c2 -7 -3 -12 -12 -12 -9
0 -16 7 -16 16 0 17 22 14 28 -4z m162 4 c0 -22 -13 -26 -33 -11 -14 10 -15
14 -5 18 24 10 38 7 38 -7z m116 3 c3 -6 0 -15 -7 -20 -13 -7 -28 5 -29 24 0
11 28 8 36 -4z m74 -10 c0 -11 -27 -12 -34 0 -3 4 -3 11 0 14 8 8 34 -3 34
-14z m64 12 c3 -5 -1 -14 -8 -20 -16 -13 -32 2 -21 19 8 12 22 13 29 1z m46
-11 c0 -11 -4 -20 -9 -20 -14 0 -23 18 -16 30 10 17 25 11 25 -10z m81 10 c5
0 9 -4 9 -10 0 -12 -47 -13 -54 -1 -8 12 6 22 22 16 7 -3 18 -5 23 -5z m117
-8 c2 -8 -7 -11 -30 -8 -46 6 -46 7 -18 16 30 10 42 8 48 -8z m300 -1 c3 -8
-1 -12 -9 -9 -7 2 -15 10 -17 17 -3 8 1 12 9 9 7 -2 15 -10 17 -17z m159 -14
c1 -14 -6 -32 -14 -39 -14 -11 -16 -10 -11 10 8 28 -15 41 -59 35 -20 -3 -33
-1 -33 5 0 11 35 18 85 16 25 -1 30 -5 32 -27z m-1712 -12 c-3 -47 -19 -49
-22 -2 -1 25 2 37 11 37 9 0 12 -12 11 -35z m663 23 c-6 -18 -28 -21 -28 -4 0
9 7 16 16 16 9 0 14 -5 12 -12z m162 8 c0 -2 -7 -6 -15 -10 -8 -3 -15 -1 -15
4 0 6 7 10 15 10 8 0 15 -2 15 -4z m-807 -117 l21 -12 -23 -8 c-12 -5 -19 -13
-16 -19 3 -5 2 -10 -3 -10 -6 0 -13 7 -16 16 -4 10 -13 13 -26 9 -14 -4 -20
-2 -20 9 0 13 11 18 53 25 5 0 18 -4 30 -10z m1637 2 c0 -6 -4 -13 -10 -16 -5
-3 -10 1 -10 9 0 9 5 16 10 16 6 0 10 -4 10 -9z m60 -8 c0 -10 -4 -24 -9 -32
-7 -11 -13 -7 -25 18 -16 31 -16 31 9 31 17 0 25 -5 25 -17z m-1172 -85 l-4
-33 -8 28 c-5 15 -5 44 0 65 l8 37 4 -32 c2 -18 2 -48 0 -65z m59 0 c-2 -13
-4 -3 -4 22 0 25 2 35 4 23 2 -13 2 -33 0 -45z m650 0 c-2 -13 -4 -5 -4 17 -1
22 1 32 4 23 2 -10 2 -28 0 -40z m-1292 -18 c7 0 15 6 18 13 3 9 7 9 20 -2 23
-18 21 -36 -3 -38 -11 -1 -20 2 -20 8 0 5 -5 9 -11 9 -5 0 -7 -4 -4 -10 3 -5
-3 -10 -14 -10 -12 0 -21 5 -21 10 0 6 5 10 12 10 8 0 9 3 1 11 -5 5 -7 22 -4
37 6 27 6 26 9 -5 2 -20 9 -33 17 -33z m1753 9 c12 -18 11 -24 -6 -39 -19 -18
-20 -18 -25 7 -5 28 0 53 12 53 3 0 12 -9 19 -21z m-48 7 c0 -3 -4 -8 -10 -11
-5 -3 -10 -1 -10 4 0 6 5 11 10 11 6 0 10 -2 10 -4z m-792 -120 c3 -13 -1 -17
-14 -14 -11 2 -20 11 -22 22 -3 13 1 17 14 14 11 -2 20 -11 22 -22z m-50 2
c-3 -7 -13 -15 -24 -17 -16 -3 -17 -1 -5 13 16 19 34 21 29 4z m886 -4 c13
-34 -2 -45 -33 -25 -12 8 -12 12 -2 25 17 20 27 20 35 0z m-1711 -59 c-6 -62
-5 -65 16 -65 29 0 27 -16 -4 -24 -32 -8 -51 2 -36 17 18 18 14 94 -5 101 -13
5 -14 9 -4 21 7 8 18 15 26 15 10 0 12 -14 7 -65z m757 20 c0 -16 -6 -25 -15
-25 -15 0 -21 31 -8 43 13 14 23 6 23 -18z m208 3 c2 -13 -3 -18 -17 -18 -12
0 -21 2 -21 4 0 2 -3 12 -6 21 -5 13 -2 16 17 13 13 -1 25 -11 27 -20z m619
-20 c-3 -8 -6 -5 -6 6 -1 11 2 17 5 13 3 -3 4 -12 1 -19z m-867 -43 c0 -33
-12 -46 -25 -25 -8 12 5 60 16 60 5 0 9 -16 9 -35z m2252 13 c-7 -7 -12 -8
-12 -2 0 14 12 26 19 19 2 -3 -1 -11 -7 -17z m-1967 1 c9 -13 -3 -59 -14 -59
-13 0 -22 30 -16 51 7 21 20 25 30 8z m-468 -31 c-3 -8 -6 -5 -6 6 -1 11 2 17
5 13 3 -3 4 -12 1 -19z m1176 -13 c1 -5 -6 -11 -15 -13 -11 -2 -18 3 -18 13 0
17 30 18 33 0z m-961 -80 c10 -11 18 -26 18 -32 0 -19 -30 -15 -37 5 -4 9 -13
23 -20 30 -7 7 -13 20 -13 29 0 13 3 13 18 2 9 -7 25 -22 34 -34z m248 21 c0
-7 -7 -19 -15 -26 -8 -7 -15 -18 -15 -25 0 -13 -40 -28 -49 -19 -3 3 4 13 15
22 12 9 27 27 33 40 13 24 31 30 31 8z m-2280 -16 c0 -5 -7 -10 -15 -10 -8 0
-15 5 -15 10 0 6 7 10 15 10 8 0 15 -4 15 -10z m1293 -62 c-2 -5 -11 -8 -19
-8 -17 0 -19 37 -1 43 12 4 28 -22 20 -35z m1700 23 c5 -21 -14 -34 -37 -25
-12 5 -12 9 2 24 22 24 29 24 35 1z m-323 -32 c0 -5 -9 -4 -19 3 -11 7 -17 16
-14 20 5 10 33 -10 33 -23z m-529 -106 c-7 -28 -9 -32 -10 -13 -1 17 -4 21 -9
12 -6 -9 -12 -5 -20 13 -13 28 -10 39 17 66 15 15 17 14 24 -12 4 -15 3 -44
-2 -66z m54 91 c13 -5 14 -8 3 -15 -19 -13 -28 -11 -28 6 0 17 2 18 25 9z
m-115 -14 c0 -5 -2 -10 -4 -10 -3 0 -8 5 -11 10 -3 6 -1 10 4 10 6 0 11 -4 11
-10z m-3090 -4 c0 -3 -4 -8 -10 -11 -5 -3 -10 -1 -10 4 0 6 5 11 10 11 6 0 10
-2 10 -4z m3684 -45 c-7 -9 -35 30 -29 40 5 7 12 2 19 -13 7 -12 11 -25 10
-27z m-464 10 c0 -5 -7 -11 -15 -15 -9 -3 -15 0 -15 9 0 8 7 15 15 15 8 0 15
-4 15 -9z m-904 -21 c8 0 14 -6 14 -13 0 -8 -12 -14 -30 -14 -22 0 -30 5 -30
18 0 18 23 32 28 18 2 -5 10 -9 18 -9z m1691 3 c4 -9 1 -19 -5 -21 -7 -2 -10
-8 -6 -13 3 -5 3 -9 0 -9 -10 0 -27 40 -21 50 9 15 25 12 32 -7z m-337 -23 c0
-5 -10 -10 -22 -9 -22 0 -22 1 -3 9 11 5 21 9 23 9 1 1 2 -3 2 -9z m170 0 c0
-5 -4 -10 -10 -10 -5 0 -10 5 -10 10 0 6 5 10 10 10 6 0 10 -4 10 -10z m166
-126 c-7 -18 -56 -18 -56 0 0 8 7 16 15 20 8 3 15 18 16 33 l1 28 14 -34 c8
-18 13 -40 10 -47z m-846 29 c0 -12 -6 -26 -14 -30 -23 -14 -39 -54 -27 -66 9
-9 13 -6 18 11 5 22 6 22 19 4 16 -23 11 -58 -7 -53 -8 2 -23 3 -35 3 -19 -1
-20 1 -10 65 7 50 7 68 -2 71 -25 8 -10 20 23 19 29 -2 35 -6 35 -24z m60 12
c0 -8 -7 -15 -15 -15 -8 0 -15 7 -15 15 0 8 7 15 15 15 8 0 15 -7 15 -15z
m-916 -31 c20 -8 21 -34 2 -34 -8 0 -21 -3 -30 -6 -12 -4 -16 0 -16 16 0 13
-4 19 -12 14 -7 -4 -8 -3 -4 4 8 13 35 16 60 6z m916 -51 c0 -7 -4 -13 -10
-13 -5 0 -10 12 -10 28 0 21 2 24 10 12 5 -8 10 -21 10 -27z m440 33 c0 -2 -7
-6 -15 -10 -8 -3 -15 -1 -15 4 0 6 7 10 15 10 8 0 15 -2 15 -4z m17 -56 c-3
-11 -1 -23 4 -26 18 -11 10 -52 -12 -59 -11 -4 -23 -5 -26 -2 -2 3 5 8 16 12
25 8 27 28 5 46 -14 11 -18 10 -30 -6 -12 -16 -14 -16 -14 -3 0 9 12 26 28 37
34 25 36 26 29 1z m173 0 c0 -5 -4 -10 -10 -10 -5 0 -10 5 -10 10 0 6 5 10 10
10 6 0 10 -4 10 -10z m-1553 -27 c-2 -15 -10 -29 -17 -31 -9 -3 -11 1 -7 12 4
10 7 24 7 32 0 8 5 14 10 14 6 0 9 -12 7 -27z m753 -4 c0 -10 -7 -19 -15 -19
-15 0 -21 31 -9 43 11 10 24 -3 24 -24z m226 9 c-3 -13 -6 -32 -7 -43 -1 -11
-5 -4 -9 15 -9 36 -6 50 12 50 6 0 8 -10 4 -22z m-56 -8 c0 -11 -4 -20 -10
-20 -5 0 -10 9 -10 20 0 11 5 20 10 20 6 0 10 -9 10 -20z m653 -13 c3 -8 1
-20 -4 -28 -6 -10 -9 -7 -9 14 0 29 5 35 13 14z m133 -42 c-6 -17 -26 -20 -26
-5 0 6 -9 10 -20 10 -11 0 -20 5 -20 11 0 6 7 8 16 5 11 -4 18 1 21 14 l6 21
14 -21 c8 -12 12 -27 9 -35z m-265 18 c13 -16 12 -17 -3 -4 -17 13 -22 21 -14
21 2 0 10 -8 17 -17z m-1431 -8 c0 -10 -10 -15 -27 -15 -27 1 -27 1 -9 15 25
19 36 19 36 0z m-14 -90 c-3 -8 -2 -15 2 -15 5 0 17 -7 28 -16 19 -15 19 -15
-3 -11 -15 3 -20 1 -16 -9 7 -19 -3 -18 -26 2 -19 17 -18 42 3 56 16 11 19 10
12 -7z m1714 -36 c0 -12 -21 -11 -40 1 -13 9 -13 11 0 19 15 10 40 -3 40 -20z
m-360 17 c0 -2 -8 -10 -17 -17 -16 -13 -17 -12 -4 4 13 16 21 21 21 13z
m-3270 -76 c0 -16 -4 -30 -10 -30 -5 0 -10 14 -10 30 0 17 5 30 10 30 6 0 10
-13 10 -30z m3280 0 c-20 -13 -40 -13 -40 0 0 6 12 10 28 10 21 0 24 -2 12
-10z m202 -32 c-9 -9 -12 -7 -12 12 0 19 3 21 12 12 9 -9 9 -15 0 -24z m-1035
0 c-3 -8 -6 -5 -6 6 -1 11 2 17 5 13 3 -3 4 -12 1 -19z m613 13 c0 -6 -4 -13
-10 -16 -5 -3 -10 1 -10 9 0 9 5 16 10 16 6 0 10 -4 10 -9z m543 -4 c3 3 14 3
23 -1 13 -5 14 -9 5 -20 -12 -14 -61 -28 -61 -17 0 3 -3 17 -7 30 -5 21 -4 22
14 12 11 -5 23 -8 26 -4z m-1662 -7 c20 -11 28 -70 9 -70 -5 0 -10 8 -10 18 0
11 -8 18 -21 19 -27 2 -33 8 -26 28 7 18 21 19 48 5z m76 -22 c-3 -7 -5 -2 -5
12 0 14 2 19 5 13 2 -7 2 -19 0 -25z m1293 7 c0 -8 -4 -15 -10 -15 -5 0 -10 7
-10 15 0 8 5 15 10 15 6 0 10 -7 10 -15z m-1241 -41 c6 -6 -43 -22 -51 -17 -5
2 -8 11 -8 19 0 11 7 13 28 8 15 -4 29 -8 31 -10z m105 -5 c-7 -11 -44 -12
-44 -1 0 15 11 20 30 15 11 -3 17 -9 14 -14z m105 12 c18 -11 5 -31 -20 -31
-18 0 -26 20 -12 33 8 9 15 9 32 -2z m97 -1 c27 0 14 -18 -16 -22 -25 -4 -30
-1 -30 15 0 13 5 17 16 13 9 -3 22 -6 30 -6z m84 -5 c0 -8 -7 -15 -15 -15 -16
0 -20 12 -8 23 11 12 23 8 23 -8z m324 7 c10 -16 -10 -30 -37 -25 -33 6 -35
20 -4 26 12 2 25 5 29 6 4 0 9 -3 12 -7z m105 -1 c7 -5 11 -14 7 -19 -9 -15
-36 -4 -36 14 0 16 9 18 29 5z m181 -6 c0 -10 -11 -15 -35 -15 -41 0 -47 17
-7 23 15 2 30 5 35 6 4 0 7 -6 7 -14z m94 9 c9 -3 16 -10 16 -15 0 -11 -31
-12 -56 -2 -16 6 -16 7 2 14 10 4 20 8 21 8 1 1 8 -2 17 -5z m386 -14 c-19
-12 -40 -13 -40 -1 0 9 40 20 50 13 2 -2 -2 -7 -10 -12z m-1046 1 c3 -5 0 -11
-8 -14 -8 -3 -17 1 -20 9 -6 15 19 20 28 5z m76 -1 c0 -5 -7 -10 -15 -10 -8 0
-18 0 -22 -1 -4 0 -9 4 -11 10 -2 6 8 11 22 11 14 0 26 -4 26 -10z m90 1 c0
-12 -21 -19 -37 -13 -22 8 -14 22 12 22 14 0 25 -4 25 -9z m180 -1 c0 -5 -4
-10 -10 -10 -5 0 -10 5 -10 10 0 6 5 10 10 10 6 0 10 -4 10 -10z m128 -2 c-3
-7 -11 -13 -18 -13 -7 0 -15 6 -17 13 -3 7 4 12 17 12 13 0 20 -5 18 -12z
m319 -8 c1 -11 -2 -20 -8 -20 -5 0 -9 5 -9 11 0 5 -4 7 -10 4 -5 -3 -10 -1
-10 5 0 7 -7 10 -15 6 -8 -3 -15 -1 -15 4 0 6 15 10 33 10 26 0 33 -4 34 -20z
m83 10 c0 -5 -9 -10 -20 -10 -11 0 -20 5 -20 10 0 6 9 10 20 10 11 0 20 -4 20
-10z m40 0 c0 -5 -4 -10 -10 -10 -5 0 -10 5 -10 10 0 6 5 10 10 10 6 0 10 -4
10 -10z m70 1 c0 -11 -26 -22 -34 -14 -12 12 -5 23 14 23 11 0 20 -4 20 -9z
m280 -519 c0 -43 -14 -62 -44 -61 -18 1 -17 2 4 8 19 5 26 14 28 39 2 19 -1
32 -8 32 -6 0 -8 5 -5 10 13 21 25 8 25 -28z m-1550 -183 c0 -17 -4 -28 -10
-24 -5 3 -10 17 -10 31 0 13 5 24 10 24 6 0 10 -14 10 -31z m1263 -1080 c-6
-6 -7 3 -4 23 4 28 6 29 9 9 2 -13 0 -27 -5 -32z m-23 -43 c0 -2 -7 -7 -16
-10 -8 -3 -12 -2 -9 4 6 10 25 14 25 6z m3 -33 c-7 -2 -19 -2 -25 0 -7 3 -2 5
12 5 14 0 19 -2 13 -5z"/>
</g>
</svg>
